<svg width="67" height="18" viewBox="0 0 67 18" fill="none" xmlns="http://www.w3.org/2000/svg">
<path d="M0.26 13V0.119999H9.24V1.82H2.44V5.72H8.5V7.4H2.44V11.32H9.24V13H0.26ZM11.2561 13V3.52H13.2561L13.3561 4.52C13.8228 4.14667 14.3361 3.85333 14.8961 3.64C15.4561 3.42667 16.0561 3.32 16.6961 3.32C17.3761 3.32 17.9028 3.43333 18.2761 3.66C18.6628 3.87333 18.9561 4.17333 19.1561 4.56C19.5961 4.2 20.1028 3.90667 20.6761 3.68C21.2494 3.44 21.9361 3.32 22.7361 3.32C23.8294 3.32 24.6361 3.6 25.1561 4.16C25.6761 4.72 25.9361 5.58 25.9361 6.74V13H23.7961V6.96C23.7961 6.22667 23.6428 5.71333 23.3361 5.42C23.0294 5.12667 22.5294 4.98 21.8361 4.98C21.3828 4.98 20.9494 5.06 20.5361 5.22C20.1361 5.38 19.7894 5.62 19.4961 5.94C19.5361 6.08667 19.5628 6.24 19.5761 6.4C19.5894 6.56 19.5961 6.73333 19.5961 6.92V13H17.5761V6.98C17.5761 6.28667 17.4561 5.78 17.2161 5.46C16.9761 5.14 16.5228 4.98 15.8561 4.98C15.3894 4.98 14.9428 5.09333 14.5161 5.32C14.1028 5.53333 13.7294 5.79333 13.3961 6.1V13H11.2561ZM28.385 17.32V3.52H30.265L30.385 4.46C30.8117 4.07333 31.2783 3.78667 31.785 3.6C32.2917 3.41333 32.8917 3.32 33.585 3.32C34.945 3.32 36.005 3.69333 36.765 4.44C37.525 5.17333 37.905 6.39333 37.905 8.1C37.905 9.80667 37.5117 11.0867 36.725 11.94C35.9383 12.78 34.865 13.2 33.505 13.2C32.3583 13.2 31.3783 12.9333 30.565 12.4V17.32H28.385ZM32.945 11.56C34.785 11.56 35.705 10.4 35.705 8.08C35.705 6.96 35.4983 6.16667 35.085 5.7C34.6717 5.22 33.9783 4.98 33.005 4.98C32.0317 4.98 31.2183 5.31333 30.565 5.98V10.72C30.8717 10.9733 31.2117 11.18 31.585 11.34C31.9717 11.4867 32.425 11.56 32.945 11.56ZM43.6456 13.2C42.6323 13.2 41.8723 12.9333 41.3656 12.4C40.8723 11.8533 40.6256 11.1133 40.6256 10.18V5.22H39.2256V3.52H40.6256V1.34L42.7856 0.679999V3.52H45.3056L45.1656 5.22H42.7856V10.06C42.7856 10.6067 42.9123 10.9933 43.1656 11.22C43.419 11.4333 43.8323 11.54 44.4056 11.54C44.7656 11.54 45.1456 11.4733 45.5456 11.34V12.88C45.0256 13.0933 44.3923 13.2 43.6456 13.2ZM48.4547 16.52C47.7347 16.52 47.1214 16.4267 46.6147 16.24V14.62C46.8414 14.7 47.048 14.7533 47.2347 14.78C47.4347 14.8067 47.6347 14.82 47.8347 14.82C48.248 14.82 48.5814 14.7533 48.8347 14.62C49.088 14.4867 49.308 14.2733 49.4947 13.98C49.6947 13.7 49.908 13.3333 50.1347 12.88L45.9147 3.52H48.1747L51.2147 10.56L54.2947 3.52H56.5347L52.6747 12.46C52.3414 13.26 51.9814 13.96 51.5947 14.56C51.2214 15.1733 50.7814 15.6533 50.2747 16C49.7814 16.3467 49.1747 16.52 48.4547 16.52ZM57.8678 13V11.3H59.7078V13H57.8678ZM61.442 13V11.3H63.282V13H61.442ZM65.0163 13V11.3H66.8563V13H65.0163Z" fill="#252525"/>
</svg>
